<?xml version="1.0" encoding="UTF-8" standalone="no"?>
<svg width="240" height="240" version="1.1" xmlns="http://www.w3.org/2000/svg" xmlns:xlink="http://www.w3.org/1999/xlink">
<defs>
    <style type="text/css"><![CDATA[
        text {
            font-family: sans-serif;
            fill: #666;
            font-weight: 100;
        }
    ]]></style>
</defs>
<g transform="translate(120,120)"><circle cx="0" cy="0" r="84" style="fill: rgb(0, 0, 0); opacity: 0.05;"></circle><g alignment-baseline="middle"><text text-anchor="middle"><tspan font-size="48">66</tspan><tspan font-size="24">%</tspan></text><text font-size="24" transform="translate(0, 31.200000000000003)" text-anchor="middle">Progress</text></g><g fill="#78c000"><path d="M8.881784197001252e-15,-113.84199576606164A6,6 0 0,1 6.3157894736842195,-119.8336797537491A120,120 0 1,1 -97.79475300030957,69.54269397721403A6,6 0 0,1 -96.11997612016805,60.99959172534124L-96.11997612016805,60.99959172534124A6,6 0 0,1 -88.0152777002786,62.58842457949263A108,108 0 1,0 5.684210526315797,-107.85031177837419A6,6 0 0,1 8.881784197001252e-15,-113.84199576606164Z" style="fill: rgb(120, 192, 0);"></path><path d="M7.549516567451064e-15,-102.55613097226316A3,3 0 0,1 3.087719298245622,-105.55484825215389A105.6,105.6 0 1,1 -29.6816463894975,101.34278399377445A3,3 0 0,1 -31.69158734777224,97.5366766471901L-31.69158734777224,97.5366766471901A3,3 0 0,1 -27.995189208276056,95.58467126685544A99.6,99.6 0 1,0 2.9122807017543932,-99.55741369237242A3,3 0 0,1 7.549516567451064e-15,-102.55613097226316Z" opacity="0.33" style="fill: rgb(120, 192, 0);"></path></g></g></svg>

